<svg width="122" height="49" viewBox="0 0 122 49" fill="none" xmlns="http://www.w3.org/2000/svg">
<path d="M11.2273 12.7273L16.8523 30.4091H17.0682L22.7045 12.7273H28.1591L20.1364 36H13.7955L5.76136 12.7273H11.2273ZM36.8551 36.3409C35.0597 36.3409 33.5142 35.9773 32.2188 35.25C30.9309 34.5152 29.9384 33.4773 29.2415 32.1364C28.5445 30.7879 28.196 29.1932 28.196 27.3523C28.196 25.5568 28.5445 23.9811 29.2415 22.625C29.9384 21.2689 30.9195 20.2121 32.1847 19.4545C33.4574 18.697 34.9498 18.3182 36.6619 18.3182C37.8134 18.3182 38.8854 18.5038 39.8778 18.875C40.8778 19.2386 41.7491 19.7879 42.4915 20.5227C43.2415 21.2576 43.8248 22.1818 44.2415 23.2955C44.6581 24.4015 44.8665 25.697 44.8665 27.1818V28.5114H30.1278V25.5114H40.3097C40.3097 24.8144 40.1581 24.197 39.8551 23.6591C39.5521 23.1212 39.1316 22.7008 38.5938 22.3977C38.0634 22.0871 37.446 21.9318 36.7415 21.9318C36.0066 21.9318 35.3551 22.1023 34.7869 22.4432C34.2263 22.7765 33.7869 23.2273 33.4688 23.7955C33.1506 24.3561 32.9877 24.9811 32.9801 25.6705V28.5227C32.9801 29.3864 33.1392 30.1326 33.4574 30.7614C33.7831 31.3902 34.2415 31.875 34.8324 32.2159C35.4233 32.5568 36.1241 32.7273 36.9347 32.7273C37.4725 32.7273 37.965 32.6515 38.4119 32.5C38.8589 32.3485 39.2415 32.1212 39.5597 31.8182C39.8778 31.5152 40.1203 31.1439 40.2869 30.7045L44.7642 31C44.5369 32.0758 44.071 33.0152 43.3665 33.8182C42.6695 34.6136 41.768 35.2348 40.6619 35.6818C39.5634 36.1212 38.2945 36.3409 36.8551 36.3409ZM48.0256 36V18.5455H52.7188V21.5909H52.9006C53.2188 20.5076 53.7528 19.6894 54.5028 19.1364C55.2528 18.5758 56.1165 18.2955 57.0938 18.2955C57.3362 18.2955 57.5975 18.3106 57.8778 18.3409C58.1581 18.3712 58.4044 18.4129 58.6165 18.4659V22.7614C58.3892 22.6932 58.0748 22.6326 57.6733 22.5795C57.2718 22.5265 56.9044 22.5 56.571 22.5C55.8589 22.5 55.2225 22.6553 54.6619 22.9659C54.1089 23.2689 53.6695 23.6932 53.3438 24.2386C53.0256 24.7841 52.8665 25.4129 52.8665 26.125V36H48.0256ZM61.1193 36V18.5455H65.9602V36H61.1193ZM63.5511 16.2955C62.8314 16.2955 62.214 16.0568 61.6989 15.5795C61.1913 15.0947 60.9375 14.5152 60.9375 13.8409C60.9375 13.1742 61.1913 12.6023 61.6989 12.125C62.214 11.6402 62.8314 11.3977 63.5511 11.3977C64.2708 11.3977 64.8845 11.6402 65.392 12.125C65.9072 12.6023 66.1648 13.1742 66.1648 13.8409C66.1648 14.5152 65.9072 15.0947 65.392 15.5795C64.8845 16.0568 64.2708 16.2955 63.5511 16.2955ZM79.2244 18.5455V22.1818H68.4517V18.5455H79.2244ZM70.9176 36V17.2841C70.9176 16.0189 71.1638 14.9697 71.6562 14.1364C72.1562 13.303 72.8381 12.678 73.7017 12.2614C74.5653 11.8447 75.5464 11.6364 76.6449 11.6364C77.3873 11.6364 78.0653 11.6932 78.679 11.8068C79.3002 11.9205 79.7623 12.0227 80.0653 12.1136L79.2017 15.75C79.0123 15.6894 78.7775 15.6326 78.4972 15.5795C78.2244 15.5265 77.9441 15.5 77.6562 15.5C76.9441 15.5 76.4479 15.6667 76.1676 16C75.8873 16.3258 75.7472 16.7841 75.7472 17.375V36H70.9176ZM87.0227 12.7273V36H82.1818V12.7273H87.0227ZM90.9006 36V18.5455H95.7415V36H90.9006ZM93.3324 16.2955C92.6127 16.2955 91.9953 16.0568 91.4801 15.5795C90.9725 15.0947 90.7188 14.5152 90.7188 13.8409C90.7188 13.1742 90.9725 12.6023 91.4801 12.125C91.9953 11.6402 92.6127 11.3977 93.3324 11.3977C94.0521 11.3977 94.6657 11.6402 95.1733 12.125C95.6884 12.6023 95.946 13.1742 95.946 13.8409C95.946 14.5152 95.6884 15.0947 95.1733 15.5795C94.6657 16.0568 94.0521 16.2955 93.3324 16.2955ZM103.665 18.5455L106.869 24.6477L110.153 18.5455H115.119L110.062 27.2727L115.256 36H110.312L106.869 29.9659L103.483 36H98.483L103.665 27.2727L98.6648 18.5455H103.665Z" fill="url(#paint0_linear_6_4)"/>
<defs>
<linearGradient id="paint0_linear_6_4" x1="117" y1="45.3" x2="5.20329" y2="23.4594" gradientUnits="userSpaceOnUse">
<stop stop-color="#01CC90"/>
<stop offset="1" stop-color="#28A3CA"/>
</linearGradient>
</defs>
</svg>
